/* XPM */
static char *star_removebg_preview_jpg[] = {
/* columns rows colors chars-per-pixel */
"32 32 194 2 ",
"   c #1B1402",
".  c #24271D",
"X  c #303024",
"o  c #433F3C",
"O  c #47433D",
"+  c #4F4649",
"@  c #5B5A46",
"#  c #695E4C",
"$  c #6C614D",
"%  c #7F7245",
"&  c #BB7908",
"*  c #B47501",
"=  c #A87212",
"-  c #C17F04",
";  c #A27D46",
":  c #B78100",
">  c #BB8112",
",  c #B58814",
"<  c #BA9715",
"1  c #BA8922",
"2  c #B6902D",
"3  c #C58B04",
"4  c #C08408",
"5  c #C88709",
"6  c #CD8D0D",
"7  c #C68B0D",
"8  c #CE9504",
"9  c #C59B0B",
"0  c #D79702",
"q  c #D5930C",
"w  c #D19F08",
"e  c #DD9D0C",
"r  c #DA9D06",
"t  c #C78C14",
"y  c #C98D15",
"u  c #D29F10",
"i  c #DD9912",
"p  c #DFAA02",
"a  c #DEA204",
"s  c #DFA911",
"d  c #DCB117",
"f  c #E2A30B",
"g  c #E6A90B",
"h  c #EDAF0E",
"j  c #E8AB07",
"k  c #EAB205",
"l  c #EEB907",
"z  c #ECB10C",
"x  c #EABB0B",
"c  c #F0B207",
"v  c #F1B50C",
"b  c #F3BC0C",
"n  c #F8BF0D",
"m  c #E4A314",
"M  c #EBAB15",
"N  c #E7B516",
"B  c #EBB414",
"V  c #EEB810",
"C  c #EBB41B",
"Z  c #F2B711",
"A  c #F4BB13",
"S  c #F3BB1B",
"D  c #C79220",
"F  c #CA9E35",
"G  c #D9A424",
"H  c #D8B02A",
"J  c #C2B936",
"K  c #E6B524",
"L  c #EFC809",
"P  c #FBC40D",
"I  c #F4CF0F",
"U  c #FCCB0D",
"Y  c #F5C302",
"T  c #FFD00E",
"R  c #FBD80D",
"E  c #EFCA19",
"W  c #E3C01A",
"Q  c #F6C214",
"!  c #FBC412",
"~  c #F7CD16",
"^  c #FDCB12",
"/  c #F0C61A",
"(  c #F6CB1C",
")  c #FACB1D",
"_  c #E7D01E",
"`  c #F7D512",
"'  c #FDD313",
"]  c #FEDC14",
"[  c #FCD41C",
"{  c #FDDC1B",
"}  c #FBE609",
"|  c #FBFE0D",
" . c #FEE215",
".. c #FDE915",
"X. c #FCE31A",
"o. c #FCEC1A",
"O. c #F4EB14",
"+. c #F7F210",
"@. c #F7F41A",
"#. c #FEF61A",
"$. c #FDFC1D",
"%. c #FCFE15",
"&. c #EBC824",
"*. c #FBDC23",
"=. c #FFDF2A",
"-. c #F9D622",
";. c #F7E320",
":. c #FDE324",
">. c #FFE927",
",. c #FAE42B",
"<. c #FEEB2B",
"1. c #FCF424",
"2. c #FEFD23",
"3. c #FCF42C",
"4. c #FEFD2C",
"5. c #FDEE39",
"6. c #FAE337",
"7. c #FDF433",
"8. c #FDFD33",
"9. c #FEFD3B",
"0. c #FAF539",
"q. c #CB9C58",
"w. c #D7B063",
"e. c #EEC64A",
"r. c #F3DD45",
"t. c #F3D541",
"y. c #FCE642",
"u. c #FFF543",
"i. c #FDFD44",
"p. c #FEFC4A",
"a. c #F5F147",
"s. c #FDFD53",
"d. c #FFF75F",
"f. c #FEFE5C",
"g. c #EBCF62",
"h. c #EDDE67",
"j. c #F4DA63",
"k. c #FDFD64",
"l. c #FBFF6D",
"z. c #FEFF73",
"x. c #FEFF78",
"c. c #D0AD83",
"v. c #DAB78D",
"b. c #DBBA8E",
"n. c #D2B188",
"m. c #DEBC93",
"M. c #DFBF98",
"N. c #E1BC89",
"B. c #E1BE94",
"V. c #E3BF9A",
"C. c #EBC68F",
"Z. c #EDD28D",
"A. c #E3C296",
"S. c #E8C395",
"D. c #EDCB94",
"F. c #E5C49B",
"G. c #E9C79D",
"H. c #E7CC9F",
"J. c #EAC99D",
"K. c #F1CB9C",
"L. c #F5D19A",
"P. c #FEFF81",
"I. c #FEFB9C",
"U. c #E7C7A1",
"Y. c #E8C6A1",
"T. c #E6CAA3",
"R. c #ECCBA3",
"E. c #EFCEA9",
"W. c #F0CFA4",
"Q. c #F1CEA9",
"!. c #F2D1A6",
"~. c #F3D3AB",
"^. c #FAD6AF",
"/. c #F7D8AC",
"(. c #F9D9AD",
"). c #F8D2A3",
"_. c #F6D6B0",
"`. c #F7D7B1",
"'. c #F6D5B1",
"]. c #F3D2B1",
"[. c #F8D6B1",
"{. c #F9D7B4",
"}. c #F7DAB0",
"|. c #F9D9B2",
" X c #F9D8B2",
".X c #FBDBB4",
"XX c #FBDAB3",
"oX c #F8D7B8",
"OX c #F9DCB9",
"+X c #FCFDBB",
"@X c #FCFCC0",
"#X c #FFFEDD",
"$X c #FEFCD5",
"%X c #FBFEE3",
/* pixels */
"(./.Q.R.~.U.~.].oXE.].Y._.E._./.Z.(.~.~././.~.~._. X_._.E.~.].].",
"J.A.J.!./.E.~.Q.R._._.~.~.~.H x.@Xf._.~._.~. XE.Q./.~.~././.~./.",
"E.F.Q.E.R.~.E.~.E.~.R. XR._.N p.#XP. X_.~.E.~.R. X~.~.~.E.~.E.~.",
"Q.R.Y.~.R.U.R.Q.[.~.Y.~.R._.G A 1.4.D._.~.~._.R._.Q.~.~.R./.E.E.",
"G.R.~.G. XR./.E.[.R.[.Q.E./.> 6 Z V /.R./.R.E.E._.{.[.E.~.~.~.~.",
"Y.[.E.G.H.9.s.$.^.R.Q.~.E.~.OXd w g. XR..X/./.~.e.7.i./.R.~.~..X",
"E.Q.R.E.A s.%XI.a.E.~.~.R.R.D u.p.$.Q..XE. XU.^.t.+X$X4.!.E.E.R.",
"E.E.Y..XK :.x.p.:.U._.E.`.~.[ 9.9.2.].E.~._.~.2 K y.P.8.R..XQ. X",
"F.R.E. X, m ! { 5.+.A./.(.T.3.9.9.$.,.Y.].oX_ 9.4 m ^ l R._.R..X",
"R.Y.R.~.`.y y p p.z.k.} _.=.o.4.9.2.$.~.( p.l.i.<.7 t U. XR. XR.",
"Y. XG.~.Y.~.E.s :.9.l.k.;.k.1.X.o.1.9.0.2.l.s.2.@.].~./.E.~. XR.",
"E.G.G.~.A.E.R.1 z { 9.7.:.^ X.8.8.3.I ..4.4.2.$.L W.Q.E.R.E.~._.",
"~.~.m.W.E.G./.E.8 A ,.` ~ o.9.s.f.p.8.2.{ 2.2.2.Y.[.Q.~.R.R.Q. X",
"m.!.R.A.~.E.G.R.& ( [ ! { 7.s.z.x.f.9.4.$.] $./ Q.Q./.E.E. XU.~.",
"R.R.A.E.G.R.G.~.N.<.' ( :.7.s.x.z.s.9.4.2.>.#.%.!.R.E.E./.R./.R.",
"R.W.G.!.R.R.L.! B ] b -.<.1.+ p.p.8.% 3.2.2.' 2.$.j.E.U.~.~.R.~.",
"A.~.E.A.L.,.9.i.*.X.! -.:.  O 9.8.f.# $.$.2.k $.4.4.4.r.R./.R.E.",
"m.~.F.C.;.<.7.4.{ o.z S ( . O :.o.J $ | $.$.x #.$.$.2.$.h.E./.R.",
"R.E.A.~.q v P P ! o.r f B . O [ X.6.@ $.$.o.b o..... . .XXU.E. X",
"G.~.G.m.Q.i f v g o.6 q f < X P ' ` o X. .] Q X.U P C E.~.R.J.!.",
"R.!.A.A.!.J.V.> -  .: 6 e z Y ! U ^ [ ' ' P ' } F ~.R.~.J.R.J.~.",
"B.R.R.V.R.R.A.W.D.S @.5 q f v n Q ! ! ! ^ ~ ' B Q.R.Y.!.R.G.~.(.",
"m.R.R.V.m./.V./., E X.W 3 q f h v v v v n { ` X.~.R.G.F.F.R.R.~.",
"m.W.G.m.R.G.W.A.B ^ ! o.&.6 q e f g g k <.U @.$.R.F.W.R.Y.Y.Y.E.",
"b.G.!.V.R.G.~.q.) ^ ^ a ] 7.d.9 8 r.p.[ ! ^ ..$.O.F.!.G.F.E.F.Y.",
"v.R.m.R.G.m.E.0 b P ! P 3 c ^ {  .T P z i Z U ..1.G.Y./.~.R.~.G.",
"b.F.R.G.J.b.R.6 v n v w.R.; z ! ] ..M R.A.= k ! ] G.A.E.~.R.A.F.",
"v.G.J.b.W.A.A., q W.F.F.E.V.q A ] ] D.~.G.m.J.L.D.Y.A.E.~.G.A.R.",
"G.A.m.J.J.m.v.~.J.m.R.~.R.A.* v R ] A.W.R.F.A.R.W.F.A.J.~.R.G.R.",
"A.v.A.J.V.b.G.W.F.A.R.~.J.A.A.g U u m.n.!.R.F.F.~.!.G.A.W.~.J.F.",
"A.B.J.R.V.V.R.W.F.G.F.W.!.!.G.t k E.G.m.m.E.F.V.J.~.!.F.A.!.W.G.",
"B.J.J.A.J.A.Y.S.N.S.J.K.).).)./.W.F.W.F.m.c.R.F.G.E.!.G.G.R.~.J."
};
