/* XPM */
static char *realdoor_removebg_preview_jpg[] = {
/* columns rows colors chars-per-pixel */
"32 32 198 2 ",
"   c #7D1919",
".  c #881D17",
"X  c #911B11",
"o  c #8E2215",
"O  c #96221C",
"+  c #9B211B",
"@  c #98281A",
"#  c #A1231A",
"$  c #A82416",
"%  c #B1251D",
"&  c #BA2D19",
"*  c #A0361E",
"=  c #B5311C",
"-  c #A41F20",
";  c #9C2521",
":  c #9D2924",
">  c #9F282C",
",  c #A42624",
"<  c #AB2427",
"1  c #A52824",
"2  c #AC2925",
"3  c #A6252B",
"4  c #AB262A",
"5  c #A52C2C",
"6  c #AA2929",
"7  c #B22A26",
"8  c #BA2C25",
"9  c #B42C29",
"0  c #BC2D2A",
"q  c #B82629",
"w  c #AD3328",
"e  c #B5332D",
"r  c #BA3A27",
"t  c #AC2D33",
"y  c #B32D33",
"u  c #B43333",
"i  c #BA3432",
"p  c #C62D1F",
"a  c #C22E2B",
"s  c #C32F21",
"d  c #C83726",
"f  c #C4312C",
"g  c #CA322E",
"h  c #D3362E",
"j  c #D13828",
"k  c #CE2E30",
"l  c #D22F34",
"z  c #C33635",
"x  c #CE3331",
"c  c #C43A34",
"v  c #CA3A36",
"b  c #C43B3B",
"n  c #CB393A",
"m  c #D33532",
"M  c #DA3733",
"N  c #D43B33",
"B  c #DD3934",
"V  c #D53E3B",
"C  c #DB3D3B",
"Z  c #DC373D",
"A  c #E23936",
"S  c #E43D3A",
"D  c #EB3D3A",
"F  c #E73436",
"G  c #F23E3B",
"H  c #FC3E3E",
"J  c #AB402C",
"K  c #B54928",
"L  c #D0492B",
"P  c #CC413C",
"I  c #DE403C",
"U  c #D44139",
"Y  c #E6433E",
"T  c #EB423D",
"R  c #F4423E",
"E  c #F9423F",
"W  c #CA693C",
"Q  c #E96C3C",
"!  c #CD3A42",
"~  c #DC3D41",
"^  c #BA7F43",
"/  c #EB4643",
"(  c #EF4C47",
")  c #F44442",
"_  c #FD4442",
"`  c #F64B45",
"'  c #FC4A45",
"]  c #F74749",
"[  c #F74A49",
"{  c #FB4B4A",
"}  c #FF524C",
"|  c #FF5755",
" . c #FA5B57",
".. c #CA6740",
"X. c #ED625B",
"o. c #F3645B",
"O. c #FA635A",
"+. c #FC7673",
"@. c #BE8A3A",
"#. c #C08B3D",
"$. c #CB9A3B",
"%. c #C48947",
"&. c #CF9845",
"*. c #CA944B",
"=. c #D69F48",
"-. c #D69C54",
";. c #D99E50",
":. c #D29858",
">. c #FD844D",
",. c #F39E4D",
"<. c #FE8D56",
"1. c #CEA144",
"2. c #D9A24C",
"3. c #DEA94D",
"4. c #D7A248",
"5. c #DCA553",
"6. c #E3A84E",
"7. c #FEA24F",
"8. c #F3BA4D",
"9. c #F9B647",
"0. c #EDAD55",
"q. c #EBAF5B",
"w. c #E4A856",
"e. c #EDBB5C",
"r. c #EBB457",
"t. c #F3B753",
"y. c #FBB455",
"u. c #FDBB55",
"i. c #FEBB5A",
"p. c #F5B859",
"a. c #EB8C7A",
"s. c #EFB460",
"d. c #EDB568",
"f. c #FEB066",
"g. c #F0BA60",
"h. c #FFB36E",
"j. c #F3C24B",
"k. c #FFC056",
"l. c #FFC45E",
"z. c #FFD25D",
"x. c #F3C266",
"c. c #FECB66",
"v. c #F4C66C",
"b. c #F9C76C",
"n. c #FDCD6A",
"m. c #FFD567",
"M. c #FCD26C",
"N. c #FFCF71",
"B. c #FED274",
"V. c #FEDD7E",
"C. c #FDDE74",
"Z. c #FBE377",
"A. c #DCBA8D",
"S. c #D4B28B",
"D. c #D8B796",
"F. c #DEBC94",
"G. c #D8B894",
"H. c #E1BA8E",
"J. c #EFB396",
"K. c #E1BE94",
"L. c #EAB897",
"P. c #EDBC9B",
"I. c #E2BE9A",
"U. c #F2BE9D",
"Y. c #E3C194",
"T. c #E5C49C",
"R. c #ECC39C",
"E. c #EEC99B",
"W. c #EAC495",
"Q. c #F2C19F",
"!. c #FAE481",
"~. c #E7C5A0",
"^. c #ECC5A2",
"/. c #ECCBA4",
"(. c #EECEA9",
"). c #F5C4A2",
"_. c #F9C5A6",
"`. c #F2CDA6",
"'. c #FAC7A8",
"]. c #F4CDAA",
"[. c #FACDAC",
"{. c #F9C9A5",
"}. c #F5D2A4",
"|. c #F1D0AA",
" X c #F3D3AC",
".X c #F2D0AE",
"XX c #F5D5AF",
"oX c #F6D4AE",
"OX c #F4D3AB",
"+X c #FAD4AD",
"@X c #F9D3A4",
"#X c #F6D6B0",
"$X c #F5D3B0",
"%X c #F8D7B6",
"&X c #FBD6B2",
"*X c #F9D9B3",
"=X c #FADAB2",
"-X c #FBDBB4",
/* pixels */
"(./.(. X(.%X%X X%X].(.#X|.*X(.-X(.XX(.XXXX(.*XXX X X X#X*X*X#X*X",
" X(.(. X|./.-X(.+.` ` ` ` ` ` J.{.' ` ` ` ` ` X.#X*X(.|.XXXXXX X",
"/.XX(. X(.(.(.o.' _ _ _ _ _ { {.].} _ _ _ _ _ _ ' OX/.#X#X(.(.XX",
"/.T././.|.oXO.' _ _ _ _ ,.>.{ _.].} Q 7.) _ _ _ _ H (.#XXX(.OX].",
"-X(.|.(.J.| R R E E R B 5.b.) '.[.( r.e.N E E E E E _ a.XX&X&X].",
"T.T.].o.{ R F y.<.G ) D 6 w ] '.+X] b 1 S G D <.9.{ R R G OX*X-X",
"|.XX .R R R j 0.x.I G G D D _ ).`.{ D G R T S s.p.p G G G G  X(.",
"/.(.{ D D D B 6 u S D T D G { '.[.{ T G D D D i : A D D T ` (.*X",
"T.T.] f.k.D D D S D D D N.u.` ).^.) h.c.) D D D D T T c.y.T (.*X",
"*X(./ 3.q...D S D D D g 6.x.S '.].T 3.q.= D D D S A L 4.b./ XX|.",
"T.(./ e 3 x A A A A S M 6 9 Y Q.].T 0 t M A A A A S N 4 7 Y XX(.",
"T.(./ B A A A A A A A A A B T U.+XT A B A A A A A A A B A Y (./.",
"/.~.Y M B M M M M M M M B B Y U.].Y B B M M M M M M M B M Y (.OX",
"OX(.Y B.j.N M M M M M M m.y.Y ).`.Y M.u.Z M M M M M h z.i.S |./.",
"/./.~ 1.0.K m m m m m 0 =.g.U ).{.B 4.6.% M m m m m r 2.v.V T.(.",
"T./.I 6 : f m m m m m g , 6 V U.^.V 2 , g m m m m h f , 2 V /./.",
"|.(.C x g x x m m m m m x x C '.+XC x m x m m m m m x x m C $X(.",
"/./.N g x g x x x x x x k f C L.].~ d l x x x x x x x s x N (.$X",
"/.T.N Z.9.r g g g g g f c.8.V R.R.~ Z.y.8 f g g g g & c.u.! T.(.",
"/.(.c &.w.* f f f f a 2 4.e.z ).T.P $.s.9 a f f f g # ;.v.V ~.(.",
"OX/.v 2 1 8 a a a a a a 1 2 v ).).n 2 , a a a a a a 0 1 2 v (.|.",
"`.(.v 0 0 0 0 0 0 0 0 0 0 0 v {.`.v 0 0 0 0 0 0 0 0 0 0 a v I./.",
"T.XXc q f 0 0 0 0 0 0 0 0 0 c Q.[.z f % 8 0 0 0 0 0 0 0 0 v F.T.",
"`.R.z C.u.K 0 0 0 0 8 2 B.8.b _.`.n !.t.$ 0 0 0 0 9 9 n.t.! T./.",
"T.R.i -.=.o 9 9 9 9 7 ; @.w.u U.&Xi *.2., 7 9 9 9 7 @ @.d.4 /./.",
"T.F.i ; ; 2 7 7 7 7 7 7 ; , i P.^.i , ; 2 7 7 7 7 7 2 ; , i F.].",
"T.A.i 2 2 2 2 2 2 2 2 2 2 2 i Q.).i 2 2 2 2 2 2 2 2 2 2 2 e D.(.",
"}.Y.u 4 7 2 2 6 6 6 6 6 y 3 e R.R.u 1 < 2 6 6 6 6 6 4 $ 4 9 S.(.",
"R.K.u V.y.W 2 , , , , ; b.t.6 P.`.y V.i.X < , , , 1 J n.l.w S.T.",
"K.A.5 ^ *.  , , , , 1 ; %.-.5 P.[.t %.-.> , , , , , . #.:.5 S.T.",
"K.F., + + + # # # # # # + + , R.~.+ + O + # # # # # # O + - G.T.",
"W.K.T.(.H.A.H.W.E.E.}.}.@X}.@X+X@XY.E.`.W.K.F.S./.T.T.T./.|.`.T."
};
