/* XPM */
static char *floor[] = {
/* columns rows colors chars-per-pixel */
"32 32 121 2 ",
"   c #D0AF86",
".  c #D6B486",
"X  c #DAB487",
"o  c #D6B58C",
"O  c #D8B78E",
"+  c #DCBA8B",
"@  c #DEBD94",
"#  c #DFBF98",
"$  c #E2BC8E",
"%  c #E0BE94",
"&  c #E1BF99",
"*  c #E3C196",
"=  c #EAC596",
"-  c #E5C49B",
";  c #E8C79D",
":  c #EBC99E",
">  c #F2CC9F",
",  c #E7C6A3",
"<  c #E9C7A1",
"1  c #ECCBA4",
"2  c #EFCEA9",
"3  c #F0CFA5",
"4  c #F1CFA9",
"5  c #F0CEA8",
"6  c #F0CFAE",
"7  c #ECD0A9",
"8  c #EDD3AE",
"9  c #F2D0A3",
"0  c #F3D1A3",
"q  c #F6D0A1",
"w  c #F7D1A2",
"e  c #F0D0A7",
"r  c #F1D0A7",
"t  c #F2D1A6",
"y  c #F1D2A6",
"u  c #F2D3A7",
"i  c #F7D2A5",
"p  c #F4D3A6",
"a  c #F4D4A5",
"s  c #F0D0A9",
"d  c #F2D1A8",
"f  c #F3D2A9",
"g  c #F0D0AA",
"h  c #F1D1AA",
"j  c #F1D1AB",
"k  c #F2D0AA",
"l  c #F2D0AB",
"z  c #F3D1AB",
"x  c #F2D2AB",
"c  c #F5D2A8",
"v  c #F4D3A8",
"b  c #F6D3A9",
"n  c #F4D3AA",
"m  c #F7D6A9",
"M  c #F5D4AB",
"N  c #F7D4AA",
"B  c #F3D1AC",
"V  c #F2D2AC",
"C  c #F3D3AC",
"Z  c #F3D3AD",
"A  c #F1D0AF",
"S  c #F4D2AC",
"D  c #F4D2AD",
"F  c #F5D3AD",
"G  c #F4D2AF",
"H  c #F0D4AF",
"J  c #F3D5AF",
"K  c #F4D4AD",
"L  c #F6D5AC",
"P  c #F7D6AD",
"I  c #F4D4AE",
"U  c #F5D5AE",
"Y  c #F5D5AF",
"T  c #F6D4AE",
"R  c #F6D4AF",
"E  c #F7D5AF",
"W  c #F6D6AF",
"Q  c #F9D4A8",
"!  c #F8D6A9",
"~  c #F9D7A9",
"^  c #F8D7AC",
"/  c #F8D7AE",
"(  c #F8D9AD",
")  c #FAD9AC",
"_  c #F9D8AF",
"`  c #F2D1B0",
"'  c #F3D2B1",
"]  c #F4D3B0",
"[  c #F4D3B2",
"{  c #F3D5B1",
"}  c #F5D4B1",
"|  c #F6D6B0",
" . c #F7D7B0",
".. c #F7D7B1",
"X. c #F6D5B2",
"o. c #F7D5B2",
"O. c #F8D6B0",
"+. c #F8D6B1",
"@. c #F9D7B1",
"#. c #F8D7B6",
"$. c #F8D8B1",
"%. c #FAD9B0",
"&. c #FBDAB1",
"*. c #F8D8B2",
"=. c #F9D9B2",
"-. c #F9D9B3",
";. c #FAD8B2",
":. c #FBD9B3",
">. c #FADAB3",
",. c #F9D8B5",
"<. c #FADAB4",
"1. c #FBDBB5",
"2. c #F9D8B7",
"3. c #FCDAB4",
"4. c #FCDCB5",
"5. c #FDDDB6",
"6. c #FDDDB7",
"7. c #FEDEB7",
"8. c #FEDEB8",
"9. c #FEDDBA",
"0. c #FFE1BE",
/* pixels */
"P - ; d ; 2 d  .< A 2.` [ P A A 2 d d P A A &. .A A ` ` 7 2 d 2 ",
"1 2 < : d % ; e 2  .< d 2 2 &.2 2  .d 2 &.1  .A P P P  .M n p Q ",
"3 1 @ < < < - 1 P d 2 2 2 1 A P 2 d &.1 d 1  .2 d d 2 P 8 J 2 A ",
"* 1 < 1 - 1 P < - < +.2 1 1 d d A [  .d 2.1 P A d  .P d d A d < ",
"< 3 - 2 5 < 5 < 1 2 F 5 1 2 P P P  .1 2 2 A +.+.d d d d P 2 1  .",
"- : &.1 - 5 5 2 - F P - &.2 2.1 2  .< d P P n &.d d P d  .< 6.1 ",
"2 @ : < < < F - P  .2 2 P 1 2 4.d 2 &.A < 2.P P A 2 1 < 1 5 < A ",
"* n @ +.- 3.*  .d <  .d d &.2  .[ &.2 &.2 A 9.2 &.6.2 5 1 { d  .",
"- - [ - * - P A * 5 1 P < &.d 2 ` 2 ,  .9. .&.1 2 &.2 2 J ` d d ",
"e 2 2 < 2 * 5 P 2 < 2 F - +.P 2 2 2.[ d 0.1 P P 2 1 &.2 d 1 2 2 ",
"@ d @ d * F & A 2 < M F < +.1 d &.< d 6.d 1 P P d 2 J d d 6 2 P ",
"2 ; % n * < 3 < 2 < < 2 &.< 5 < P < d F 2 2 d d 1 1 P 2 P 1 P 1 ",
"* M ; < @ d @ &.- F < < P 2 5 < 2 +.1 +.- d &.d 2 < P 1 5 2 d +.",
"- - - * 3 - < 3 3 < F F - F < P P &.< < &.d < P < &.- d d d 2 P ",
"1 - @ M * P e * < - 1 2 < P < < F _ 3 3 - d < 2  .< A d 2 2 +.- ",
"@ e * 3 * P ; &.1 1 5 5 5 < 1 < 5 P _ 2 < 2 1 2 <  .2 P 2 - 1 5 ",
"- : % P * 2 - 1 3 - 1 P 2 - d 1 d - 2.< 5 d , #.- P < P 2 d 2 - ",
"* d @ A % 1 % d ; 2 2 < 2 F d < P < F ; 2 < 1 [ P 1 d < F < d < ",
"@ n @ 1 * / @ _ * 1 2 & d < < 5 2 5 1 2 P < 2 1 P 2 A < 2 1 5 < ",
"Q + : : @ n * 2 2 @ _ & 5 : ; / - P < / 2 < 2 1 e e 1 1 e ; d 1 ",
"; 1 * 1 % 3 * : : * n * P < ; &.- 1 P - P < F 5 d 2 2 1 3 - P < ",
"- ; @ n % 1 - - 1 * P @ 2 2 * / : : / 1 1 e 1 < 3 ; P < - M ; d ",
"9 % @ 1 @ - ; @ P - - 3 - M * 2 2 : - M - 1 3 - - < 1 &.- 2 ; - ",
"* + - - @ e - @ - 2 - < * d * n < 1 - M * 2 - e < - < P ; e < - ",
"$ + * - @ * 3 * - < - 2 2 * - 2 1 % / ; P 2 - d - d - A - 1 e - ",
"* + * n * % - # @ 2 - - d < * F - - e < <  .< - / 1 P 3 - e @ _ ",
"9 $ @ e * % * / O e % ; * 1 * / - : < @ * d - @ d 1 * e - @ M @ ",
"3 + + M @ = = = * < : n @ 3 % p * * e - ; n < * M < - d - - 2 1 ",
"> $ . > % * % 3 % % 3 - < < @ 3 - * 2 - * d : * 2 2 - e 2 : 1 e ",
"3 X : + : + 1 * @ 1 - * P : * ; P *   _ - ; P - < / - 3 < 2 - 1 ",
"= $ ; * : + : * % 1 ; * 2 a : 2 2 < @ o - @ e e - 2 2 - d - 1 - ",
"+ = + = $ * * = * < + = : w w Q ; 3 ; * 1 - 1 e - < d - : - - * "
};
