/* XPM */
static char *Mario_Big_Idle_removebg_preview_jpg[] = {
/* columns rows colors chars-per-pixel */
"32 32 221 2 ",
"   c #D92600",
".  c #D92701",
"X  c #DA2700",
"o  c #DA2601",
"O  c #D92703",
"+  c #DB2702",
"@  c #DC2601",
"#  c #D32B00",
"$  c #D52901",
"%  c #D62900",
"&  c #D62901",
"*  c #D52A00",
"=  c #D82800",
"-  c #D92800",
";  c #D82900",
":  c #D82801",
">  c #DA2900",
",  c #DA2A01",
"<  c #D82B03",
"1  c #D93309",
"2  c #DA3309",
"3  c #DA3B13",
"4  c #DA3B14",
"5  c #876F01",
"6  c #896F00",
"7  c #896F01",
"8  c #8A6F00",
"9  c #8A6E01",
"0  c #857100",
"q  c #867000",
"w  c #877000",
"e  c #867100",
"r  c #877101",
"t  c #867201",
"y  c #857003",
"u  c #887100",
"i  c #887101",
"p  c #8B7000",
"a  c #887002",
"s  c #8D7507",
"d  c #8D750B",
"f  c #90780C",
"g  c #90780E",
"h  c #977E19",
"j  c #9A7F18",
"k  c #997D1A",
"l  c #DB471F",
"z  c #DA491D",
"x  c #96801A",
"c  c #99801C",
"v  c #9C831F",
"b  c #A0852A",
"n  c #A1862B",
"m  c #A0852C",
"M  c #A48A2B",
"N  c #A3882D",
"B  c #A88F35",
"V  c #A99036",
"C  c #AF933F",
"Z  c #FF9736",
"A  c #FB9934",
"S  c #FB9936",
"D  c #F89A36",
"F  c #FC9836",
"G  c #FD9937",
"H  c #FE9836",
"J  c #FE9738",
"K  c #FF9738",
"L  c #FE973A",
"P  c #FA9938",
"I  c #FB9938",
"U  c #FB983A",
"Y  c #FB983B",
"T  c #FC9838",
"R  c #FC983A",
"E  c #FC993B",
"W  c #FD9A3D",
"Q  c #FC9B3D",
"!  c #FB9C40",
"~  c #FB9E41",
"^  c #F89D44",
"/  c #FD9E44",
"(  c #C2A561",
")  c #C2A563",
"_  c #CCAE6E",
"`  c #CBB06D",
"'  c #F5B97D",
"]  c #F6B87D",
"[  c #DEBE95",
"{  c #DFBE95",
"}  c #E1BE96",
"|  c #E1BF99",
" . c #E3C295",
".. c #E1C097",
"X. c #E5C396",
"o. c #E4C495",
"O. c #E6C695",
"+. c #E6C697",
"@. c #E3C299",
"#. c #E3C19B",
"$. c #E4C199",
"%. c #E4C398",
"&. c #E6C399",
"*. c #E5C29A",
"=. c #E4C39A",
"-. c #E6C39B",
";. c #E6C598",
":. c #E5C49B",
">. c #E5C19D",
",. c #E4C29C",
"<. c #E2C59D",
"1. c #E6C59C",
"2. c #E7C69D",
"3. c #E6C49E",
"4. c #E7C59F",
"5. c #E9C69C",
"6. c #E8C79C",
"7. c #E9C69E",
"8. c #E8C79E",
"9. c #EAC89B",
"0. c #E9C89D",
"q. c #E9CA9C",
"w. c #E9C89F",
"e. c #E6C6A0",
"r. c #E8C4A0",
"t. c #E8C6A0",
"y. c #E9C7A1",
"u. c #E9C7A4",
"i. c #E8C7A6",
"p. c #EAC9A0",
"a. c #EBCAA1",
"s. c #E8C8A2",
"d. c #E9C9A3",
"f. c #EAC8A2",
"g. c #EBC9A3",
"h. c #EACAA3",
"j. c #ECCBA2",
"k. c #EACDA3",
"l. c #EDCCA3",
"z. c #EECDA2",
"x. c #EACAA4",
"c. c #EBCBA4",
"v. c #ECCAA4",
"b. c #EDCBA5",
"n. c #ECCCA5",
"m. c #EECDA4",
"M. c #ECCCA6",
"N. c #EDCDA6",
"B. c #EDCDA7",
"V. c #EECCA6",
"C. c #EFCDA7",
"Z. c #EACCA8",
"A. c #EACCAA",
"S. c #EFCDA8",
"D. c #EECEA8",
"F. c #EFCFA9",
"G. c #EECDAA",
"H. c #F0CFA6",
"J. c #F0CEA8",
"K. c #F0CEA9",
"L. c #F1CFA9",
"P. c #F1CFAA",
"I. c #F9CCAB",
"U. c #EDD1A9",
"Y. c #F3D1A3",
"T. c #F4D2A2",
"R. c #F1D0A7",
"E. c #F4D2A4",
"W. c #F7D2A6",
"Q. c #F0D0A9",
"!. c #F3D2A9",
"~. c #F0D0AA",
"^. c #F2D0AA",
"/. c #F3D1AB",
"(. c #F4D3AA",
"). c #F7D6A9",
"_. c #F5D4AB",
"`. c #F7D4AA",
"'. c #F1D0AD",
"]. c #F2D2AC",
"[. c #F3D3AD",
"{. c #F1D0AF",
"}. c #F2D1AE",
"|. c #F4D2AC",
" X c #F4D2AD",
".X c #F5D3AD",
"XX c #F3D5AF",
"oX c #F6D5AC",
"OX c #F7D6AD",
"+X c #F4D4AE",
"@X c #F5D5AE",
"#X c #F5D5AF",
"$X c #F6D4AE",
"%X c #F7D4AE",
"&X c #F6D4AF",
"*X c #F7D5AF",
"=X c #F6D6AF",
"-X c #F9D7A9",
";X c #F2D6B1",
":X c #F5D4B1",
">X c #F4D6B0",
",X c #F6D6B0",
"<X c #F5D4B3",
"1X c #F6D5B2",
"2X c #F6D5B4",
"3X c #F7D6B5",
"4X c #F8D6B0",
"5X c #F9D7B2",
"6X c #F8D7B6",
"7X c #F5D9B2",
"8X c #F8D8B2",
"9X c #F9D9B3",
"0X c #FBD9B3",
"qX c #FBD9B4",
"wX c #FADAB4",
"eX c #FBDBB5",
"rX c #FCDAB7",
"tX c #FCDCB6",
"yX c #F9DDB8",
"uX c #FDDFB9",
"iX c #FFDFB9",
/* pixels */
"6X3X{.{.3X3Xc.c.=X=Xc.c.  = = = = = = = = = ,X,X^.F.=X=X{.{.{.{.",
"9X9XF.F.F.F.7X9X  = = = = = = = =       T T rXeX=X=XN.N.=X=X9X9X",
"N.N.c.c.c.c.1 1 = = = = = = = = = = K T T T ,X,X9X9Xf.f.,X,X{.{.",
"9X9Xb.b.f.f.3 4 = = = = = = = = = * = * * * = = = = = = ,X=X^.^.",
"^.^.|.|.J.J.k x w w w w Z T T T w 6 I T T T ! ^ =X;XZ.Z.y.e.N.N.",
"f.f.3.3.C C I T T S w w Z T T T w w w 6 T T T T T T ! ! iXiX{.{.",
"=X=XN.k.w w I T T S w w 6 6 F T K K K I T T T T T T T T I I F.F.",
"f.f.s s w w S T T S w w w 6 S T T T T I w w T T T T T T Q Q eXeX",
"4X4Xw w w w S T T T K K K T I T w w w 6 w w w w w w w w yXtXF.F.",
">.>.w w ) ) w w T S T T T T T T T S w 5 5 5 w w 6 w f f 3X,X{.{.",
"8.8.=X=Xb.b.O.;.w 6 T T T T T T T T T T T T ] ] {.^.9X9Xf.f.=X=X",
"y.f.J.J.4X4X^.I.l z T T T T T T T T T S c c ,XXX8.y.=X=XN.N.N.N.",
"y.y.y.y.=X=XN.N.M N = = w w w w w w w w = = ` _ 3.3.|.|.J.J.4X4X",
"f.f.^.^.#.#.n n u 5 = = w w w w w w w w = = w w V B f.f.=X=XJ.J.",
"y.u.z.N.h h w w w 5 = = w w w w w w w w = = w w w w u u y.w.y.y.",
">.>.w w w w w w w 5 = = w w w w w w w w = = w w w w w w w w b.b.",
"N.J.w w w w w w   = = = w w w w w w w w = = @   u w w w w w |.|.",
"w w w w w w w w = = = = w w w w w w w w = = =   w w w w w w w w ",
"w w w w w w w w = = = = = = = = = = = = = = =   w w w w w w w w ",
"w w w w w w w w = = F F # = = = = = =   / / *   w w w w w w w w ",
"T T T T T T T K = = = = = = = = = = = = = = = * T T T T T T T T ",
"T T T T T T T K = = = = = = = = = = = = = = = * T T T T T T T T ",
"N.z.T T T T F S = = = = = = = = = = = = = = =   S S T T T K [ [ ",
"^.^.T T T T * = = = = = = = = = = = = = = = = = = = T T T K 3.3.",
"(.W.9.y.* * = = = = = = = = = = = = = = = = = = = * * = =X).8.8.",
"=X=X  = = = = = = = = = * * U.J.y.u.= * = = = = = = = = = = J.J.",
"R.^.  = = = = = = = = = w.f.=X=Xf.j.3.3.= = = = = = = = = = b.b.",
";.<.= = = = = = = = = = O.;.).)...O.[ [ = = = = = = = = = = H.H.",
"} } 8.8.w w w w w w w w #.#.^.^.j.f.$.$.w w w w w w w w | ..f.f.",
"$.$.$.$.w w w w w w w w ....w.w.^.).8.8.w w w w w w w w 3.3.#.#.",
"$.$.m n w w w w w w u u y.8.H.H.z.j.H.J.d d w w w w w w w w w w ",
"w w w w w w w w w w k k T.W.-X-XY.Y.X.$.v v w w w w w w w w w w "
};
