/* XPM */
static char *Wall[] = {
/* columns rows colors chars-per-pixel */
"32 32 32 1 ",
"  c None",
". c black",
"X c #2C1103",
"o c #2F1203",
"O c #301203",
"+ c #311303",
"@ c #321303",
"# c #4E1E05",
"$ c #511F05",
"% c #542005",
"& c #772D07",
"* c #953909",
"= c #963909",
"- c #973909",
"; c #993A09",
": c #9A3B09",
"> c #9B3B09",
", c #A03D0A",
"< c #A33E0A",
"1 c #A53F0A",
"2 c #A8400A",
"3 c #BB470B",
"4 c #C0490B",
"5 c #C44B0C",
"6 c #C84C0C",
"7 c #C94C0C",
"8 c #CA4D0C",
"9 c #CB4D0C",
"0 c #CC4D0C",
"q c #CD4E0C",
"w c #CE4E0C",
"e c #CF4F0C",
/* pixels */
"  ............................  ",
"  XOOOOXOXXXXXXXXXXXXXOOXOOOOX  ",
".X&;;;--------------------;;;&X.",
".O;5213wwwwwwwwwwwwwwwwww4125;O.",
".O>2%$<ww77777777777777ww<$%2;O.",
".O;1$#<w7777777777777777w<#$1;O.",
".O-4<<37777777777777777773<<3-O.",
".X-www77777777777777777677www-X.",
".X-ww7777777777777777776777ww-X.",
".X-w777777777777777777777777w-X.",
".X-w777777777777767777677777w-X.",
".X-w777777777777677777667777w-X.",
".X-w777766777777777777777777w-O.",
".X-w777776777766777777777777w-O.",
".O-w777777777777777777777777w-X.",
".O-w777777777777777777777777w-X.",
".X-w777777777777777777777777w-X.",
".X-w777777777777777777777777w-X.",
".X-w777777777677776777777777w-X.",
".X-w777766677677776776667777w-X.",
".X-w777777777777777777777777w-X.",
".X-w777777777777777777777777w-X.",
".X-w777777777777777766777777w-O.",
".X-ww7777777777767777777777ww-X.",
".X-www77777777776777777777www-X.",
".O-4<<37777777777777777773<<4-O.",
".O;1$#<w77777777777777777<#$1;O.",
".O>2%$<ww77777777777777ww<$%2;O.",
".O;5214wwwwwwwwwwwwwwwwww3125;O.",
".X&;;;--------------------;;;&X.",
"  XOOOOXXXXXOOXXXXXXOOXXXOOOOX  ",
"  ............................  "
};
